# xmcd
#
# Track frame offsets: 
#        150
#        13092
#        29042
#        45482
#        62787
#        75467
#        88555
#        103205
#        121127
#        137165
#        153177
#        178572
#        195242
#        211590
#        230755
#        247445
#        264122
#        278467
#        294437
#        312580
#        332807
#
# Disc length: 4667 seconds
#
# Revision: 8
# Processed by: cddbd v1.5.2PL0 Copyright (c) Steve Scherf et al.
# Submitted via: ExactAudioCopyFreeDBPlugin 1.0
#
DISCID=24123915
DTITLE=Various Artist - Can You Dig It?:  The '70s Soul Experience [R
DTITLE=hino box set]
DYEAR=2001
DGENRE=Soul
TTITLE0=Earth, Wind and Fire - Shining Star
TTITLE1=B.T. Express - Express
TTITLE2=AWB - Cut the Cake
TTITLE3=War - Why Can't We Be Friends?
TTITLE4=Curtis Mayfield - So in Love
TTITLE5=The Ohio Players - Love Rollercoaster
TTITLE6=Tavares - It Only Takes a Minute
TTITLE7=Brass Construction - Movin'
TTITLE8=The Manhattans - Kiss and Say Goodbye
TTITLE9=Lou Rawls - You'll Never Find Another Love Like Mine
TTITLE10=Brick - Dazz
TTITLE11=The Emotions - Best of My Love
TTITLE12=The Brothers Johnson - Strawberry Letter 23
TTITLE13=The Floaters - Float On
TTITLE14=Heatwave - Always and Forever
TTITLE15=L.T.D. - {Every Time I Turn Around} Back in Love Again
TTITLE16=Rick James - You and I
TTITLE17=Bobby Caldwell - What You Won't Do for Love
TTITLE18=Peaches and Herb - Reunited
TTITLE19=Smokey Robinson - Cruisin'
TTITLE20=Rose Royce - Golden Touch
EXTD=
EXTT0=
EXTT1=
EXTT2=
EXTT3=
EXTT4=
EXTT5=
EXTT6=
EXTT7=
EXTT8=
EXTT9=
EXTT10=
EXTT11=
EXTT12=
EXTT13=
EXTT14=
EXTT15=
EXTT16=
EXTT17=
EXTT18=
EXTT19=
EXTT20=
PLAYORDER=
